# xmcd CD database file
#
# Track frame offsets:
#	183
#	16983
#	28418
#	47535
#	58030
#	71653
#	85600
#	101203
#	115845
#	128870
#	142140
#	154015
#	172540
#	186700
#	205480
#	219468
#	230953
#	243118
#
# Disc length: 3436 seconds
#
# Revision: 0
# Processed by: cddbd v1.5.2PL0 Copyright (c) Steve Scherf et al.
# Submitted via: CDex 1.70beta2
#
DISCID=080d6a12
DTITLE=Django Reinhardt - Django CD 3
DYEAR=1991
DGENRE=Jazz
TTITLE0=Porto Cabello
TTITLE1=Swing dynamique
TTITLE2=Artillerie lourde
TTITLE3=Douce ambiance
TTITLE4=Swing de Paris
TTITLE5=It had to be you
TTITLE6=Blues en mineur
TTITLE7=Mélodie au crépuscule
TTITLE8=Dinette
TTITLE9=Folie à Amphion
TTITLE10=Symphonie
TTITLE11=Saint Louis blues
TTITLE12=How high the moon
TTITLE13=Nuages
TTITLE14=Black night
TTITLE15=Micro
TTITLE16=Dream of you
TTITLE17=Place de Brouckère
EXTD=YEAR: 1991
EXTT0=
EXTT1=
EXTT2=
EXTT3=
EXTT4=
EXTT5=
EXTT6=
EXTT7=
EXTT8=
EXTT9=
EXTT10=
EXTT11=
EXTT12=
EXTT13=
EXTT14=
EXTT15=
EXTT16=
EXTT17=
PLAYORDER=
